<?xml version="1.0" standalone="no"?><!DOCTYPE svg PUBLIC "-//W3C//DTD SVG 1.1//EN" "http://www.w3.org/Graphics/SVG/1.1/DTD/svg11.dtd"><svg t="1627021599176" class="icon" viewBox="0 0 1024 1024" version="1.1" xmlns="http://www.w3.org/2000/svg" p-id="3292" xmlns:xlink="http://www.w3.org/1999/xlink" width="32" height="32"><defs><style type="text/css">@font-face { font-family: feedback-iconfont; src: url("//at.alicdn.com/t/font_1031158_1uhr8ri0pk5.eot?#iefix") format("embedded-opentype"), url("//at.alicdn.com/t/font_1031158_1uhr8ri0pk5.woff2") format("woff2"), url("//at.alicdn.com/t/font_1031158_1uhr8ri0pk5.woff") format("woff"), url("//at.alicdn.com/t/font_1031158_1uhr8ri0pk5.ttf") format("truetype"), url("//at.alicdn.com/t/font_1031158_1uhr8ri0pk5.svg#iconfont") format("svg"); }
</style></defs><path d="M208.59259307 117.57037013a91.02222187 91.02222187 0 0 0-91.02222294 91.02222294v606.81481386a91.02222187 91.02222187 0 0 0 91.02222294 91.02222294h606.81481386a91.02222187 91.02222187 0 0 0 91.02222294-91.02222294V208.59259307a91.02222187 91.02222187 0 0 0-91.02222294-91.02222294H208.59259307z m0-60.6814816h606.81481386a151.70370347 151.70370347 0 0 1 151.70370454 151.70370454v606.81481386a151.70370347 151.70370347 0 0 1-151.70370454 151.70370454H208.59259307a151.70370347 151.70370347 0 0 1-151.70370454-151.70370454V208.59259307a151.70370347 151.70370347 0 0 1 151.70370454-151.70370454z" p-id="3293"></path><path d="M269.2740736 117.57037013v273.06666667h485.4518528V117.57037013h60.68148053v282.41161494c0 28.33825173-27.1549632 51.33653333-60.68148053 51.33653333H269.2740736c-33.5265184 0-60.6814816-22.9982816-60.68148053-51.33653333V117.57037013h60.68148053z" p-id="3294"></path><path d="M633.3629632 178.25185173m30.34074027 0l0 0q30.34074027 0 30.34074133 30.34074134l0 91.02222186q0 30.34074027-30.34074133 30.34074027l0 0q-30.34074027 0-30.34074027-30.34074027l0-91.02222186q0-30.34074027 30.34074027-30.34074134Z" p-id="3295"></path></svg>