<?xml version="1.0" standalone="no"?><!DOCTYPE svg PUBLIC "-//W3C//DTD SVG 1.1//EN" "http://www.w3.org/Graphics/SVG/1.1/DTD/svg11.dtd"><svg t="1627021560766" class="icon" viewBox="0 0 1024 1024" version="1.1" xmlns="http://www.w3.org/2000/svg" p-id="2085" xmlns:xlink="http://www.w3.org/1999/xlink" width="32" height="32"><defs><style type="text/css">@font-face { font-family: feedback-iconfont; src: url("//at.alicdn.com/t/font_1031158_1uhr8ri0pk5.eot?#iefix") format("embedded-opentype"), url("//at.alicdn.com/t/font_1031158_1uhr8ri0pk5.woff2") format("woff2"), url("//at.alicdn.com/t/font_1031158_1uhr8ri0pk5.woff") format("woff"), url("//at.alicdn.com/t/font_1031158_1uhr8ri0pk5.ttf") format("truetype"), url("//at.alicdn.com/t/font_1031158_1uhr8ri0pk5.svg#iconfont") format("svg"); }
</style></defs><path d="M384.8899175 667.87527875a644.71496438 644.71496438 0 0 0-81.72934875 57.46799344c-22.8213825 18.89418469-37.6574625 31.67939531-52.53717844 45.73003687-12.78521062 11.99977125-25.2649725 24.34862625-37.39564969 37.00292906-1.74542156 1.8326925-3.53447812 3.79629094-6.108975 6.7635075-14.44336031 16.58150156-42.02101594 6.54532969-41.97737999-15.35970656 0.13090688-55.46075906 0.13090688-102.89258156 0-147.18264468L162.91597344 55.66878406C162.8287025 36.03279594 185.69372 24.99300688 201.40251125 36.99277719a138286.49453063 138286.49453063 0 0 1 60.95883656 46.60274718l60.04249031 45.642765 9.81799407 7.41804 138.32463187 105.16162875 12.78521063 9.77435907A83503.04585062 83503.04585062 0 0 0 573.08996094 319.70738l8.50892812 6.45805875 4.2762825 3.22902937a15394.26610969 15394.26610969 0 0 1 59.43159282 45.16277438l11.65068656 8.90164781a15406.00406719 15406.00406719 0 0 0 69.38049375 52.58081438l30.15215156 22.73411156c25.74496312 19.54871813 51.44629031 39.09743531 77.1039825 58.68978844 17.62875469 13.43974312 8.59619906 41.27921156-13.70155687 42.06465187-7.15622719 0.30544875-14.22518344 0.6108975-23.56318594 1.13452313-24.61043906 1.39633687-35.47568625 2.18177625-48.39180375 3.75265594a364.57485844 364.57485844 0 0 1-18.85054969 1.61451468 305.44871438 305.44871438 0 0 0-19.50508219 1.74542157c-6.06533906 0.82907531-11.60705156 1.48360781-21.20686781 2.66176687a1541.68693125 1541.68693125 0 0 0-39.57742594 5.23626375c-26.18131875 4.05810469-52.97353406 9.42527437-81.68571281 16.40695969a13828.62327187 13828.62327187 0 0 1 12.04340625 19.81053093l3.22902937 5.27989876a7527.69628969 7527.69628969 0 0 0 38.39926688 62.66062218l4.45082344 7.19986219 4.45082437 7.19986313 6.37078781 10.34162062 2.18177625 3.49084219a18042.41919 18042.41919 0 0 1 30.28305844 49.26451406l5.27989875 8.639835c16.84331437 27.49038469 25.00315875 40.84285688 34.82115375 56.59528313 13.74519187 21.99230719 18.10874531 45.20640937 15.35970656 72.95860781-4.62536625 46.73365312-35.03933063 86.39835094-80.28937593 94.3836525-21.20686781 3.70902-50.00631844 2.61813187-68.55141844-4.53809532-23.99954156-9.2507325-41.45375437-25.87587-54.71895562-48.7408875-6.71987156-11.60705156-11.21433094-21.11959687-20.63960625-42.5446425-3.01085156-6.89441344-6.10897406-13.74519187-9.2943675-20.59597031a2033.24118375 2033.24118375 0 0 1-11.17069594-24.13044844c-3.49084219-7.50531094-5.84716125-12.82884562-12.30522-27.18493593a5273.74659187 5273.74659187 0 0 0-23.82499969-52.18809469l-1.43997187-3.1417575-2.399955-5.23626375a11234.66551969 11234.66551969 0 0 1-45.20640938-99.40173938l-9.2507325 5.67261938zM754.17741312 516.37271656l-26.79221625-20.3341575c-8.29075125-6.32715187-15.01062281-11.34523781-30.06488062-22.64684062a7015.45879594 7015.45879594 0 0 1-69.59867063-52.79899125l-11.65068656-8.90164875A24840.83485688 24840.83485688 0 0 0 556.81390812 366.70284688l-4.23264656-3.22902938-8.55256406-6.45805875a32435.33714344 32435.33714344 0 0 1-89.88919312-68.20233469l-12.74157469-9.77435812-138.32463188-105.11799375-9.77435906-7.41804a42275.23656375 42275.23656375 0 0 1-82.47115313-62.79152813l2.05087032 548.45498344c0.08727094 28.10128125 0.08727094 57.46799344 0.04363593 89.36556656l4.71263719-4.45082343c15.79606219-14.92335187 31.28667562-28.27582406 54.84986156-47.78090625a692.93222625 692.93222625 0 0 1 85.7438175-60.47884594l1.57087969-0.95998125a902.60095031 902.60095031 0 0 0 13.96336969-8.50892813 47.95544813 47.95544813 0 0 1 22.25412-5.80352625c6.32715187 0 13.09065937 1.30906594 19.76689594 4.71263719 8.98891969 4.58173031 16.27605281 12.21794812 20.85778312 22.42866281a11314.30036312 11314.30036312 0 0 0 46.12275656 101.45260875l3.88356188 8.37802219a5613.27465562 5613.27465562 0 0 1 23.95590656 52.58081438c6.41442281 14.26881844 8.81437687 19.50508219 12.21794813 26.96675812 3.57811313 7.85439562 7.24349812 15.79606219 10.95251812 23.65045688 3.35993625 7.19986219 6.63260062 14.48699625 9.81799406 21.77413031 8.68347094 19.72326 12.65430375 28.18855312 18.23965219 37.78836937 8.24711531 14.22518344 17.84693156 23.34500906 30.71941406 28.31945907 9.2507325 3.57811313 29.49761906 4.36355344 42.76281938 2.00723437 22.07957812-3.92719781 38.48653781-25.3086075 41.19194062-52.66808531 1.78905656-18.15238031-0.6545325-31.15576875-8.50892812-43.72280156-9.905265-15.92696906-18.15238031-29.32307625-35.03933063-56.98800282l-5.27989968-8.639835a8691.54316125 8691.54316125 0 0 0-30.2394225-49.13360718l-2.13814125-3.44720719-10.82161125-17.54148375-4.45082438-7.19986219a18570.75819469 18570.75819469 0 0 1-38.57380875-62.922435l-3.18539437-5.23626375-7.33076907-12.04340625-7.24349812-11.91250031a42.23919375 42.23919375 0 0 1-3.752655-39.22834219 43.06826906 43.06826906 0 0 1 30.50123531-25.22133656 1022.16230438 1022.16230438 0 0 1 101.23443094-19.98507281c8.72710594-1.221795 15.4469775-2.05087031 30.85032094-3.92719782 9.46891031-1.17815906 14.92335187-1.8326925 20.77051218-2.61813187 6.54532969-0.87271031 11.51977969-1.30906594 22.51593375-2.05086938 5.49807656-0.30544875 10.95251813-0.78543938 16.40695969-1.39633687 4.10173969-0.47999062 7.94166656-0.91634625 11.99977031-1.30906594z" p-id="2086"></path></svg>