<?xml version="1.0" standalone="no"?><!DOCTYPE svg PUBLIC "-//W3C//DTD SVG 1.1//EN" "http://www.w3.org/Graphics/SVG/1.1/DTD/svg11.dtd"><svg t="1627021594909" class="icon" viewBox="0 0 1228 1024" version="1.1" xmlns="http://www.w3.org/2000/svg" p-id="3158" xmlns:xlink="http://www.w3.org/1999/xlink" width="38.375" height="32"><defs><style type="text/css">@font-face { font-family: feedback-iconfont; src: url("//at.alicdn.com/t/font_1031158_1uhr8ri0pk5.eot?#iefix") format("embedded-opentype"), url("//at.alicdn.com/t/font_1031158_1uhr8ri0pk5.woff2") format("woff2"), url("//at.alicdn.com/t/font_1031158_1uhr8ri0pk5.woff") format("woff"), url("//at.alicdn.com/t/font_1031158_1uhr8ri0pk5.ttf") format("truetype"), url("//at.alicdn.com/t/font_1031158_1uhr8ri0pk5.svg#iconfont") format("svg"); }
</style></defs><path d="M965.297772 974.849376c-41.982824 0-80.381749-17.202718-114.070406-50.891375-24.780106-24.780106-47.205078-59.083146-69.118065-103.93309-34.815025-73.828333-63.179031-167.828901-99.222822-291.831828-5.324651-17.714704-10.034919-34.815025-14.745187-52.017744-27.749623-98.096453-54.27048-190.253873-92.771802-255.173655-36.555776-61.43828-77.412232-88.061534-135.880996-88.061534-51.403361 0-95.638922 21.912986-136.392981 66.76293-39.013308 43.109193-72.701964 105.776238-100.451587 186.669974-52.017744 150.626182-70.34683 327.875619-70.34683 433.651857H0c0-116.42554 20.069838-311.287284 77.412232-477.375433C174.894303 59.00942 327.875619 0.028671 438.874112 0.028671a266.232545 266.232545 0 0 1 150.114196 43.723576c37.886939 25.394489 70.244433 60.823897 98.608439 108.643358 47.921858 80.381749 76.285864 180.833337 107.005004 287.121561 4.710268 17.202718 10.034919 34.30304 14.745187 51.40336 27.749623 94.512554 58.468763 201.517558 92.15742 271.761991 23.551341 49.662609 47.205078 79.152984 64.407796 79.152984 10.034919 0 43.006796-21.298604 79.152984-86.832769 34.200642-61.43828 52.529729-126.460459 52.529729-157.179599H1228.765595c0 59.083146-27.13524 146.530297-69.118065 222.201778a413.274828 413.274828 0 0 1-75.569084 100.963573c-37.886939 35.429408-77.412232 53.758495-118.780674 53.758495z" p-id="3159"></path></svg>