<?xml version="1.0" standalone="no"?><!DOCTYPE svg PUBLIC "-//W3C//DTD SVG 1.1//EN" "http://www.w3.org/Graphics/SVG/1.1/DTD/svg11.dtd"><svg t="1627021582724" class="icon" viewBox="0 0 1024 1024" version="1.1" xmlns="http://www.w3.org/2000/svg" p-id="2755" xmlns:xlink="http://www.w3.org/1999/xlink" width="32" height="32"><defs><style type="text/css">@font-face { font-family: feedback-iconfont; src: url("//at.alicdn.com/t/font_1031158_1uhr8ri0pk5.eot?#iefix") format("embedded-opentype"), url("//at.alicdn.com/t/font_1031158_1uhr8ri0pk5.woff2") format("woff2"), url("//at.alicdn.com/t/font_1031158_1uhr8ri0pk5.woff") format("woff"), url("//at.alicdn.com/t/font_1031158_1uhr8ri0pk5.ttf") format("truetype"), url("//at.alicdn.com/t/font_1031158_1uhr8ri0pk5.svg#iconfont") format("svg"); }
</style></defs><path d="M864 554.666667a32 32 0 0 1 32 32v234.666666a32 32 0 0 1-27.648 31.701334L864 853.333333H160a32 32 0 0 1-32-32v-234.666666a32 32 0 1 1 64 0v202.624l640 0.042666v-202.666666a32 32 0 0 1 32-32z m-340.522667-380.074667l2.773334 2.56 193.194666 211.797333a23.210667 23.210667 0 0 1 5.888 15.616c0 10.837333-7.125333 19.882667-16.512 21.76l-3.626666 0.341334H576v170.666666a21.333333 21.333333 0 0 1-21.333333 21.333334h-85.333334a21.333333 21.333333 0 0 1-21.333333-21.333334v-170.666666H318.805333a18.986667 18.986667 0 0 1-11.818666-4.224l-2.432-2.261334a23.722667 23.722667 0 0 1-2.56-27.733333l2.56-3.498667 193.194666-211.797333c6.997333-7.68 17.834667-8.533333 25.728-2.56z" p-id="2756"></path></svg>