<?xml version="1.0" standalone="no"?><!DOCTYPE svg PUBLIC "-//W3C//DTD SVG 1.1//EN" "http://www.w3.org/Graphics/SVG/1.1/DTD/svg11.dtd"><svg t="1627021586685" class="icon" viewBox="0 0 1024 1024" version="1.1" xmlns="http://www.w3.org/2000/svg" p-id="2889" xmlns:xlink="http://www.w3.org/1999/xlink" width="32" height="32"><defs><style type="text/css">@font-face { font-family: feedback-iconfont; src: url("//at.alicdn.com/t/font_1031158_1uhr8ri0pk5.eot?#iefix") format("embedded-opentype"), url("//at.alicdn.com/t/font_1031158_1uhr8ri0pk5.woff2") format("woff2"), url("//at.alicdn.com/t/font_1031158_1uhr8ri0pk5.woff") format("woff"), url("//at.alicdn.com/t/font_1031158_1uhr8ri0pk5.ttf") format("truetype"), url("//at.alicdn.com/t/font_1031158_1uhr8ri0pk5.svg#iconfont") format("svg"); }
</style></defs><path d="M398.08 44.8C373.12 60.16 358.4 91.52 358.4 128v25.6H121.6v76.8h38.4v330.88c0 308.48 1.28 333.44 12.16 357.12 14.08 30.72 34.56 50.56 65.92 64 33.28 13.44 525.44 14.08 563.84 0.64 30.72-11.52 47.36-26.24 62.72-56.32 11.52-22.4 12.16-42.88 12.16-360.32V230.4h44.8V153.6h-243.2v-32.64c0-40.32-17.92-72.32-46.08-81.92C621.44 35.2 568.96 32 515.84 32c-85.76 0-99.2 1.28-117.76 12.8zM601.6 131.2V153.6H441.6v-44.8h160v22.4z m198.4 427.52c0 326.4 0 328.96-13.44 341.12-12.8 11.52-28.16 12.16-245.12 14.08-126.72 1.28-243.2 0-258.56-1.92-46.72-7.04-46.08-0.64-46.08-364.8V230.4h563.2v328.32z" p-id="2890"></path><path d="M320 572.8V793.6h76.8V352H320v220.8zM480 572.8V793.6h76.8V352H480v220.8zM640 572.8V793.6h76.8V352h-76.8v220.8z" p-id="2891"></path></svg>