<?xml version="1.0" standalone="no"?><!DOCTYPE svg PUBLIC "-//W3C//DTD SVG 1.1//EN" "http://www.w3.org/Graphics/SVG/1.1/DTD/svg11.dtd"><svg t="1627021603219" class="icon" viewBox="0 0 1024 1024" version="1.1" xmlns="http://www.w3.org/2000/svg" p-id="3428" xmlns:xlink="http://www.w3.org/1999/xlink" width="32" height="32"><defs><style type="text/css">@font-face { font-family: feedback-iconfont; src: url("//at.alicdn.com/t/font_1031158_1uhr8ri0pk5.eot?#iefix") format("embedded-opentype"), url("//at.alicdn.com/t/font_1031158_1uhr8ri0pk5.woff2") format("woff2"), url("//at.alicdn.com/t/font_1031158_1uhr8ri0pk5.woff") format("woff"), url("//at.alicdn.com/t/font_1031158_1uhr8ri0pk5.ttf") format("truetype"), url("//at.alicdn.com/t/font_1031158_1uhr8ri0pk5.svg#iconfont") format("svg"); }
</style></defs><path d="M549.0688 0L380.5184 170.1888l53.6576 53.589333 72.704-76.526933v290.952533h-290.816L292.795733 365.226667l-53.589333-53.589334L68.266667 480.119467l170.871466 168.5504 53.725867-53.725867L216.610133 524.288h290.269867v288.768L434.176 736.529067l-53.521067 53.4528 168.413867 177.493333 168.413867-177.493333-53.589334-53.4528-70.587733 75.434666V523.332267l288.3584 0.8192-76.3904 70.792533 53.8624 53.794133L1024 480.119467l-164.864-168.618667-53.725867 53.725867 76.526934 72.840533-288.631467-0.8192V146.909867l70.519467 77.073066 53.794133-53.794133z" p-id="3429"></path></svg>