<?xml version="1.0" standalone="no"?><!DOCTYPE svg PUBLIC "-//W3C//DTD SVG 1.1//EN" "http://www.w3.org/Graphics/SVG/1.1/DTD/svg11.dtd"><svg t="1627023971981" class="icon" viewBox="0 0 1137 1024" version="1.1" xmlns="http://www.w3.org/2000/svg" p-id="1104" xmlns:xlink="http://www.w3.org/1999/xlink" width="35.53125" height="32"><defs><style type="text/css">@font-face { font-family: feedback-iconfont; src: url("//at.alicdn.com/t/font_1031158_1uhr8ri0pk5.eot?#iefix") format("embedded-opentype"), url("//at.alicdn.com/t/font_1031158_1uhr8ri0pk5.woff2") format("woff2"), url("//at.alicdn.com/t/font_1031158_1uhr8ri0pk5.woff") format("woff"), url("//at.alicdn.com/t/font_1031158_1uhr8ri0pk5.ttf") format("truetype"), url("//at.alicdn.com/t/font_1031158_1uhr8ri0pk5.svg#iconfont") format("svg"); }
</style></defs><path d="M1067.861333 712.590222H429.909333c-31.004444 0-56.035556-27.761778-56.035555-61.724444s25.031111-61.724444 56.035555-61.724445H1067.804444c31.004444 0 56.035556 27.761778 56.035556 61.724445s-25.031111 61.724444-56.035556 61.724444z m0-288.028444H429.909333c-31.004444 0-56.035556-27.761778-56.035555-61.724445 0-33.905778 25.031111-61.667556 56.035555-61.667555H1067.804444c31.004444 0 56.035556 27.761778 56.035556 61.667555 0 33.962667-25.031111 61.724444-56.035556 61.724445z m-3.982222-277.731556H86.869333c-32.995556 0-62.008889-25.713778-62.976-59.619555C22.869333 52.224 49.891556 23.438222 83.911111 23.438222h976.952889c32.995556 0 62.008889 25.713778 63.032889 59.619556 0.967111 34.986667-25.998222 63.772444-60.017778 63.772444zM302.876444 711.566222V302.193778L23.893333 506.88l278.983111 204.686222c0 1.024 0 1.024 0 0z m-219.022222 155.306667h977.009778c32.995556 0 62.008889 25.713778 63.032889 59.619555 0.967111 34.986667-25.998222 63.772444-60.017778 63.772445H86.869333c-32.995556 0-62.008889-25.713778-62.976-59.619556-1.024-34.986667 25.998222-63.772444 60.017778-63.772444z" p-id="1105"></path></svg>